# xmcd
#
# Track frame offsets: 
#        150
#        35325
#        52950
#        61150
#        104157
#        111825
#        126550
#
# Disc length: 2202 seconds
#
# Revision: 0
# Processed by: cddbd v1.5.1PL0 Copyright (c) Steve Scherf et al.
# Submitted via: ExactAudioCopy v0.95a5
#
DISCID=62089807
DTITLE=Betty Carter - I Didn't Know What Time It Was
DYEAR=1900
DGENRE=Jazz
TTITLE0=Intro
TTITLE1=What's New
TTITLE2=Tight
TTITLE3=Medley
TTITLE4=My Favourite Things
TTITLE5=You're A Sweetheart
TTITLE6=All Through The Day
EXTD=
EXTT0=
EXTT1=
EXTT2=
EXTT3=
EXTT4=
EXTT5=
EXTT6=
PLAYORDER=
